<?xml version="1.0" encoding="utf-8"?>
<!-- Generator: Adobe Illustrator 25.3.1, SVG Export Plug-In . SVG Version: 6.00 Build 0)  -->
<svg version="1.1" id="Layer_1" xmlns="http://www.w3.org/2000/svg" xmlns:xlink="http://www.w3.org/1999/xlink" x="0px" y="0px"
	 viewBox="0 0 179 49.1" style="enable-background:new 0 0 179 49.1;" xml:space="preserve">
<style type="text/css">
	.st0{fill:#1E2898;}
</style>
<g>
	<path class="st0" d="M49,11.1h4.4v21.4h13.3v4H49V11.1z"/>
	<path class="st0" d="M78.6,36.9c-1.5,0-2.8-0.3-4-0.8c-1.2-0.5-2.3-1.2-3.2-2.1c-0.9-0.9-1.6-1.9-2.1-3.2c-0.5-1.2-0.8-2.5-0.8-3.8
		v-0.1c0-1.4,0.3-2.7,0.8-3.9c0.5-1.2,1.2-2.3,2.1-3.2c0.9-0.9,2-1.6,3.2-2.2c1.2-0.5,2.6-0.8,4.1-0.8c1.5,0,2.8,0.3,4.1,0.8
		c1.2,0.5,2.3,1.2,3.2,2.1c0.9,0.9,1.6,2,2.1,3.2c0.5,1.2,0.8,2.5,0.8,3.9v0.1c0,1.4-0.3,2.6-0.8,3.8c-0.5,1.2-1.2,2.3-2.1,3.2
		c-0.9,0.9-2,1.6-3.2,2.2C81.4,36.6,80.1,36.9,78.6,36.9z M78.7,33.1c0.9,0,1.7-0.2,2.4-0.5c0.7-0.3,1.3-0.8,1.8-1.3
		c0.5-0.6,0.9-1.2,1.2-1.9c0.3-0.7,0.4-1.5,0.4-2.3v-0.1c0-0.8-0.1-1.6-0.4-2.4c-0.3-0.7-0.7-1.4-1.2-2c-0.5-0.6-1.1-1-1.8-1.3
		c-0.7-0.3-1.5-0.5-2.4-0.5c-0.9,0-1.7,0.2-2.4,0.5c-0.7,0.3-1.3,0.8-1.8,1.3c-0.5,0.5-0.9,1.2-1.2,1.9c-0.3,0.7-0.4,1.5-0.4,2.4
		v0.1c0,0.8,0.1,1.6,0.4,2.4c0.3,0.7,0.7,1.4,1.2,2c0.5,0.6,1.1,1,1.8,1.3C77,32.9,77.8,33.1,78.7,33.1z"/>
	<path class="st0" d="M100.4,42.3c-3.2,0-6-0.8-8.6-2.3l1.6-3.3c1,0.6,2.1,1.1,3.2,1.5c1.1,0.4,2.3,0.5,3.6,0.5c2,0,3.5-0.5,4.5-1.5
		c1-1,1.6-2.5,1.6-4.4v-1.5c-0.8,1-1.7,1.9-2.8,2.5c-1.1,0.7-2.4,1-4,1c-1.1,0-2.2-0.2-3.3-0.6c-1-0.4-2-1-2.8-1.8
		c-0.8-0.8-1.5-1.7-1.9-2.8c-0.5-1.1-0.7-2.4-0.7-3.8v-0.1c0-1.4,0.2-2.7,0.7-3.8c0.5-1.1,1.1-2.1,1.9-2.8c0.8-0.8,1.7-1.3,2.8-1.8
		c1.1-0.4,2.1-0.6,3.2-0.6c1.6,0,3,0.3,4,1c1.1,0.6,2,1.4,2.7,2.3v-2.9h4.4v15.2c0,3.2-0.8,5.6-2.4,7.2c-0.9,0.9-2,1.5-3.3,1.9
		C103.7,42.1,102.1,42.3,100.4,42.3z M100.7,31.2c0.7,0,1.5-0.1,2.2-0.4c0.7-0.3,1.3-0.6,1.8-1.1c0.5-0.5,0.9-1,1.2-1.7
		c0.3-0.6,0.5-1.3,0.5-2.1v-0.1c0-0.8-0.2-1.5-0.5-2.2c-0.3-0.6-0.7-1.2-1.2-1.7c-0.5-0.5-1.1-0.8-1.8-1.1c-0.7-0.3-1.4-0.4-2.2-0.4
		c-0.8,0-1.5,0.1-2.1,0.4c-0.7,0.3-1.2,0.6-1.7,1.1c-0.5,0.5-0.9,1-1.2,1.7c-0.3,0.6-0.4,1.4-0.4,2.2v0.1c0,0.8,0.1,1.5,0.4,2.2
		c0.3,0.6,0.7,1.2,1.2,1.7c0.5,0.5,1.1,0.8,1.7,1.1C99.3,31.1,100,31.2,100.7,31.2z"/>
	<path class="st0" d="M115,17.3h4.4v19.2H115V17.3z"/>
	<path class="st0" d="M123.6,17.3h4.4v3c0.3-0.5,0.7-0.9,1-1.3c0.4-0.4,0.8-0.8,1.3-1.1c0.5-0.3,1-0.6,1.6-0.8
		c0.6-0.2,1.3-0.3,2-0.3c2.2,0,3.8,0.7,5,2c1.2,1.3,1.8,3.1,1.8,5.4v12.2h-4.4V25.6c0-1.5-0.4-2.6-1.1-3.5c-0.7-0.8-1.7-1.2-3-1.2
		c-1.3,0-2.3,0.4-3.1,1.2c-0.8,0.8-1.2,2-1.2,3.5v10.8h-4.4V17.3z"/>
</g>
<g>
	<path class="st0" d="M146,11.1h2.9v25.4H146V11.1z"/>
	<path class="st0" d="M154.2,11.1h8.8c8,0,13.5,5.5,13.5,12.6v0.1c0,7.2-5.5,12.7-13.5,12.7h-8.8V11.1z M163,33.9
		c6.4,0,10.5-4.4,10.5-10v-0.1c0-5.6-4.1-10.1-10.5-10.1h-6v20.1H163z"/>
</g>
<g>
	<path class="st0" d="M114.8,10.5h4.7v4.1h-4.7V10.5z M115,17.5h4.4v18.9H115V17.5z"/>
</g>
<g>
	<path class="st0" d="M26.9,17.1c0.2,0.1,0.5,0.1,0.7,0c0.4-0.2,0.6-0.8,0.4-1.2c-1.5-3.1-4.6-5.1-7.9-5.1c-2.3,0-4.5,1-6.2,2.7
		c-1.6,1.7-2.6,3.9-2.6,6.3c0,0.2,0.1,0.5,0.2,0.6c0.2,0.2,0.4,0.3,0.6,0.3c0.5,0,0.9-0.4,0.9-0.9c0.1-3.9,3.3-7.2,7-7.2
		c2.6,0,5,1.6,6.3,4.1C26.5,16.9,26.7,17.1,26.9,17.1z"/>
	<path class="st0" d="M20.2,37.7c3,0,5.8-1.6,7.4-4.2c0.9-1.4,1.3-3,1.3-4.7v-8.1c0-0.5-0.4-0.9-0.9-0.9c-0.5,0-0.9,0.4-0.9,0.9v8.1
		c0,1.3-0.4,2.6-1.1,3.8l0,0c-1.3,2.1-3.5,3.3-5.9,3.3c-3.9,0-7-3.2-7-7.1v-4.5c0-0.5-0.4-0.9-0.9-0.9c-0.5,0-0.9,0.4-0.9,0.9v4.5
		C11.4,33.7,15.3,37.7,20.2,37.7z"/>
	<path class="st0" d="M8.6,20.1c0-0.6,0-1.2,0.1-1.9c0.1-0.5-0.3-1-0.7-1c0,0-0.1,0-0.1,0c-0.2,0-0.4,0.1-0.5,0.2
		c-0.2,0.1-0.3,0.4-0.4,0.6c-0.1,0.7-0.2,1.4-0.2,2.2v8.7c0,7.4,6,13.4,13.3,13.4c4.5,0,8.7-2.3,11.1-6.1c0.3-0.4,0.2-1-0.3-1.3
		c-0.2-0.1-0.4-0.2-0.7-0.1c-0.2,0-0.4,0.2-0.6,0.4c-2.1,3.3-5.7,5.3-9.6,5.3c-6.4,0-11.5-5.2-11.5-11.6V20.1z"/>
	<path class="st0" d="M33.3,30.7c0.1-0.6,0.1-1.2,0.1-1.9v-8.7c0-3.6-1.4-7.1-3.9-9.7c-2.5-2.7-5.9-4.2-9.4-4.2
		c-4.4,0-8.6,2.3-11.1,6.2c-0.3,0.4-0.2,1,0.3,1.3c0.2,0.1,0.4,0.2,0.7,0.1c0.2,0,0.4-0.2,0.6-0.4c2.2-3.4,5.8-5.4,9.6-5.4
		c6.3,0,11.5,5.5,11.5,12.1v8.7c0,0.5,0,1.1-0.1,1.6c-0.1,0.5,0.3,1,0.8,1C32.8,31.5,33.3,31.1,33.3,30.7z"/>
	<path class="st0" d="M3.2,26.9c0.5,0,0.9-0.4,0.9-0.9v-5.8c0-9.1,7.3-16.8,16-16.8h0.1c7.9,0,14.8,6.5,15.9,14.7
		c0,0.2,0.2,0.5,0.3,0.6c0.2,0.1,0.4,0.2,0.7,0.2c0.5-0.1,0.8-0.5,0.8-1c-0.5-4.4-2.6-8.5-5.8-11.5c-3.3-3.1-7.5-4.8-11.8-4.8
		c-4.8,0-9.3,2-12.7,5.6c-3.3,3.5-5.2,8.2-5.2,13V26C2.3,26.5,2.7,26.9,3.2,26.9z"/>
	<path class="st0" d="M37.1,21.7c-0.5,0-0.9,0.4-0.9,0.9v6.1c0,8.9-7.2,16.2-16,16.2c-8.2,0-15.1-6.2-15.9-14.5
		c0-0.2-0.1-0.5-0.3-0.6c-0.2-0.1-0.4-0.2-0.6-0.2c0,0-0.1,0-0.1,0l0,0c-0.2,0-0.5,0.1-0.6,0.3c-0.2,0.2-0.2,0.4-0.2,0.7
		c0.5,4.4,2.5,8.5,5.8,11.5c3.3,3,7.5,4.7,12,4.7c9.8,0,17.8-8.1,17.8-18v-6.1C38,22.1,37.6,21.7,37.1,21.7z"/>
	<path class="st0" d="M20.1,19L20.1,19C20.1,19,20.1,19,20.1,19C20.1,19,20.1,19,20.1,19L20.1,19c-2.3,0-4.1,1.9-4.1,4.2
		c0,1,0.4,2,1,2.7l0.1,0.1v2.7c0,0.5,0.4,0.9,0.9,0.9h2.2h0h2.2c0.5,0,0.9-0.4,0.9-0.9v-2.7l0.1-0.1c0.7-0.8,1-1.7,1-2.7
		C24.2,20.8,22.3,19,20.1,19z M21.6,25L21.6,25c0,0-0.3,0.2-0.3,0.5c0,0.3,0,2.3,0,2.3h-1.3h0h-1.3c0,0,0-1.9,0-2.3
		c0-0.3-0.2-0.5-0.2-0.5l0,0c-0.5-0.5-0.8-1.1-0.8-1.8c0-1.3,1.1-2.4,2.4-2.4c1.3,0,2.4,1.1,2.4,2.4C22.5,23.8,22.2,24.5,21.6,25z"
		/>
</g>
</svg>
