<?xml version="1.0" encoding="utf-8"?>
<!-- Generator: Adobe Illustrator 26.0.2, SVG Export Plug-In . SVG Version: 6.00 Build 0)  -->
<svg version="1.1" id="Layer_1" xmlns="http://www.w3.org/2000/svg" xmlns:xlink="http://www.w3.org/1999/xlink" x="0px" y="0px"
	 viewBox="0 0 179.8 45.2" style="enable-background:new 0 0 179.8 45.2;" xml:space="preserve">
<style type="text/css">
	.st0{fill:#1E2898;}
</style>
<g id="Layer_1-2">
	<path class="st0" d="M46.6,9.5H51v21.4h13.3v4H46.6V9.5z"/>
	<path class="st0" d="M76.2,35.3c-1.4,0-2.7-0.3-4-0.8C71,34,69.9,33.3,69,32.4c-0.9-0.9-1.6-2-2.1-3.2s-0.8-2.5-0.8-3.8v-0.1
		c0-1.3,0.3-2.7,0.8-3.9c0.5-1.2,1.2-2.3,2.1-3.2c0.9-0.9,2-1.6,3.2-2.2c1.3-0.5,2.7-0.8,4.1-0.8s2.8,0.3,4.1,0.8
		c2.4,1,4.3,2.9,5.3,5.3c0.5,1.2,0.8,2.6,0.8,3.9v0.1c0,1.3-0.3,2.6-0.8,3.8c-0.5,1.2-1.2,2.3-2.1,3.2s-2,1.6-3.2,2.2
		C79.1,35,77.6,35.3,76.2,35.3z M76.3,31.5c0.8,0,1.6-0.2,2.4-0.5c0.7-0.3,1.3-0.8,1.8-1.3c0.5-0.6,0.9-1.2,1.2-1.9
		c0.3-0.7,0.4-1.5,0.4-2.3v-0.1c0-0.8-0.1-1.6-0.4-2.4c-0.3-0.7-0.7-1.4-1.2-2s-1.1-1-1.8-1.3c-1.5-0.7-3.3-0.7-4.8,0
		c-0.7,0.3-1.3,0.8-1.8,1.3c-0.5,0.6-0.9,1.2-1.2,1.9c-0.3,0.8-0.4,1.6-0.4,2.4v0.1c0,0.8,0.1,1.6,0.4,2.4c0.3,0.7,0.7,1.4,1.2,2
		s1.1,1,1.8,1.3C74.7,31.3,75.5,31.5,76.3,31.5z"/>
	<path class="st0" d="M98,40.7c-3,0-6-0.8-8.6-2.3l1.6-3.3c1,0.6,2.1,1.1,3.2,1.5c1.2,0.4,2.4,0.5,3.6,0.5c1.6,0.1,3.3-0.4,4.5-1.5
		c1.1-1.2,1.7-2.8,1.6-4.4v-1.5c-0.8,1-1.7,1.9-2.8,2.5c-1.2,0.7-2.6,1.1-4,1c-1.1,0-2.2-0.2-3.3-0.6c-1-0.4-2-1-2.8-1.8
		s-1.5-1.7-1.9-2.8c-0.5-1.2-0.7-2.5-0.7-3.8v-0.1c0-1.3,0.2-2.6,0.7-3.8c0.4-1.1,1.1-2,1.9-2.8c1.6-1.6,3.8-2.4,6-2.4
		c1.4-0.1,2.8,0.3,4,1c1,0.6,2,1.4,2.7,2.3v-2.9h4.4v15.2c0,3.2-0.8,5.6-2.4,7.2c-0.9,0.9-2.1,1.6-3.3,1.9
		C101,40.5,99.5,40.8,98,40.7z M98.3,29.6c0.8,0,1.5-0.1,2.2-0.4c0.7-0.2,1.3-0.6,1.8-1.1s0.9-1.1,1.2-1.7c0.3-0.7,0.5-1.4,0.5-2.1
		v-0.1c0-0.8-0.2-1.5-0.5-2.2c-0.3-0.6-0.7-1.2-1.2-1.7s-1.1-0.9-1.8-1.1c-0.7-0.3-1.4-0.4-2.2-0.4c-0.7,0-1.4,0.1-2.1,0.4
		c-0.6,0.2-1.2,0.6-1.7,1.1s-0.9,1.1-1.2,1.7c-0.3,0.7-0.4,1.4-0.4,2.2v0.1c0,0.8,0.1,1.5,0.4,2.2c0.3,0.6,0.7,1.2,1.2,1.7
		s1.1,0.8,1.7,1.1C96.9,29.5,97.6,29.6,98.3,29.6L98.3,29.6z"/>
	<path class="st0" d="M112.6,15.7h4.4v19.2h-4.4V15.7z"/>
	<path class="st0" d="M121.2,15.7h4.4v3c0.3-0.5,0.6-0.9,1-1.3s0.8-0.8,1.3-1.1c0.5-0.3,1-0.6,1.6-0.8c2.5-0.7,5.1-0.1,7,1.7
		c1.3,1.5,1.9,3.4,1.8,5.4v12.2h-4.4V24c0.1-1.3-0.3-2.5-1.1-3.5c-0.8-0.8-1.9-1.3-3-1.2c-1.2-0.1-2.3,0.4-3.1,1.2
		c-0.9,1-1.3,2.2-1.2,3.5v10.8h-4.4L121.2,15.7L121.2,15.7z"/>
	<path class="st0" d="M143.6,9.5h2.9v25.4h-2.9V9.5z"/>
	<path class="st0" d="M151.8,9.5h8.8c8,0,13.5,5.5,13.5,12.6v0.1c0,7.2-5.5,12.7-13.5,12.7h-8.8V9.5z M160.6,32.3
		c6.4,0,10.5-4.4,10.5-10v-0.1c0-5.6-4.1-10.1-10.5-10.1h-6v20.1L160.6,32.3L160.6,32.3z"/>
	<path class="st0" d="M112.4,8.9h4.7V13h-4.7V8.9z M112.6,15.9h4.4v18.9h-4.4V15.9z"/>
	<path class="st0" d="M24.5,15.5c0.2,0.1,0.5,0.1,0.7,0c0.4-0.3,0.6-0.8,0.4-1.2c-1.4-3.1-4.5-5-7.9-5.1c-2.3,0-4.6,1-6.2,2.7
		s-2.6,3.9-2.6,6.3c0,0.2,0.1,0.4,0.2,0.6c0.2,0.2,0.4,0.3,0.6,0.3c0.5,0,0.9-0.4,0.9-0.9c0.1-3.9,3.1-7,7-7.2
		c2.7,0.1,5.1,1.7,6.3,4.1C24.1,15.3,24.3,15.5,24.5,15.5z"/>
	<path class="st0" d="M17.8,36.1c3,0,5.8-1.6,7.4-4.2c0.9-1.4,1.3-3,1.3-4.7v-8.1c0-0.5-0.4-0.9-0.9-0.9s-0.9,0.4-0.9,0.9v8.1
		c0,1.3-0.4,2.7-1.1,3.8l0,0c-1.3,2.1-3.5,3.3-5.9,3.3c-3.9,0-7-3.1-7-7v-0.1v-4.5c0-0.5-0.4-0.9-0.9-0.9s-0.9,0.4-0.9,0.9v4.5
		C9,32.1,12.9,36,17.8,36.1z"/>
	<path class="st0" d="M6.1,18.5c0-0.7,0.1-1.3,0.2-1.9c0.1-0.5-0.2-0.9-0.7-1l0,0H5.5c-0.2,0-0.4,0.1-0.5,0.2
		c-0.2,0.1-0.3,0.4-0.4,0.6c-0.1,0.7-0.2,1.5-0.2,2.2v8.7c0,7.4,5.9,13.4,13.3,13.4c4.5,0,8.7-2.3,11.1-6.1c0.3-0.4,0.2-1-0.2-1.2
		c0,0-0.1,0-0.1-0.1c-0.2-0.1-0.5-0.2-0.7-0.1c-0.2,0-0.4,0.2-0.6,0.4c-2.1,3.3-5.7,5.3-9.6,5.3c-6.4,0-11.5-5.2-11.5-11.5
		c0,0,0,0,0-0.1L6.1,18.5L6.1,18.5z"/>
	<path class="st0" d="M30.9,29.1c0.1-0.6,0.1-1.3,0.1-1.9v-8.7c0-3.6-1.4-7.1-3.9-9.7c-2.4-2.7-5.8-4.2-9.4-4.2
		C13.2,4.6,9,7,6.6,10.8c-0.3,0.4-0.2,1,0.2,1.2c0,0,0.1,0,0.1,0.1c0.2,0.1,0.5,0.2,0.7,0.1c0.2,0,0.4-0.2,0.6-0.4
		c2.1-3.3,5.7-5.4,9.6-5.4c6.3,0,11.5,5.5,11.5,12.1v8.7c0,0.5,0,1.1-0.1,1.6s0.2,0.9,0.7,1H30C30.5,29.9,30.9,29.6,30.9,29.1
		L30.9,29.1z"/>
	<path class="st0" d="M0.8,25.3c0.5,0,0.9-0.4,0.9-0.9v-5.8c0-9.1,7.3-16.8,16-16.8h0.1c7.9,0,14.8,6.5,15.9,14.7
		c0,0.2,0.1,0.4,0.3,0.6c0.2,0.1,0.5,0.2,0.7,0.2c0.5-0.1,0.8-0.5,0.8-1C35,11.9,33,7.8,29.7,4.8C26.5,1.8,22.3,0,17.9,0
		C13.1,0,8.5,2,5.2,5.6C1.9,9.1,0,13.8,0,18.6v5.8c-0.1,0.4,0.2,0.8,0.6,0.9C0.7,25.3,0.8,25.3,0.8,25.3z"/>
	<path class="st0" d="M34.7,20.1c-0.5,0-0.9,0.4-0.9,0.9l0,0v6.1c0,8.9-7.1,16.1-16,16.2C9.6,43.3,2.7,37,1.9,28.8
		c0-0.2-0.1-0.5-0.3-0.6C1.4,28.1,1.2,28,1,28H0.9c-0.2,0-0.5,0.1-0.6,0.3c-0.2,0.2-0.2,0.4-0.2,0.7c0.5,4.4,2.5,8.5,5.8,11.5
		s7.6,4.7,12,4.7c9.9-0.1,17.8-8.1,17.8-18v-6.1C35.7,20.6,35.3,20.1,34.7,20.1z"/>
	<path class="st0" d="M17.7,17.4L17.7,17.4c-2.3,0-4.1,1.9-4.1,4.2l0,0c0,1,0.4,1.9,1,2.7l0.1,0.1v2.7c0,0.5,0.4,0.9,0.9,0.9H20
		c0.5,0,0.9-0.4,0.9-0.9v-2.7l0.1-0.1c0.7-0.7,1-1.7,1-2.7C21.9,19.3,20,17.5,17.7,17.4z M19.2,23.4L19.2,23.4
		c-0.2,0.1-0.3,0.3-0.3,0.5v2.3h-2.6v-2.3c0-0.2-0.1-0.4-0.2-0.5l0,0c-0.5-0.5-0.8-1.1-0.8-1.8c0-1.3,1-2.4,2.3-2.5
		c1.3,0,2.4,1,2.5,2.3C20.1,22.2,19.8,22.9,19.2,23.4z"/>
	<g>
		<path class="st0" d="M175.2,9.6v0.8h-1.1V13h-1v-2.6H172V9.6H175.2z"/>
		<path class="st0" d="M179.8,9.6V13h-0.9v-1.3l0-1.1h0l-0.7,2.4h-0.8l-0.7-2.4h0l0,1.1V13h-0.9V9.6h1.5l0.5,1.6l0.2,0.7h0l0.2-0.7
			l0.5-1.6H179.8z"/>
	</g>
</g>
</svg>
